<?xml version="1.0" encoding="utf-8"?>
<!-- Generator: Adobe Illustrator 18.1.0, SVG Export Plug-In . SVG Version: 6.00 Build 0)  -->
<svg version="1.1" id="Layer_1" xmlns="http://www.w3.org/2000/svg" xmlns:xlink="http://www.w3.org/1999/xlink" x="0px" y="0px"
	 viewBox="0 0 114 46" enable-background="new 0 0 114 46" xml:space="preserve">
<g>
	<g>
		<path fill="#FFFFFF" d="M14.2,39.8h-0.7c-0.1-0.4-0.3-0.8-0.7-1c-0.3-0.1-0.6-0.2-0.9-0.2c-0.5,0-1,0.2-1.3,0.6
			c-0.4,0.4-0.5,1-0.5,1.7c0,0.7,0.1,1.3,0.4,1.7c0.3,0.5,0.8,0.7,1.5,0.7c0.3,0,0.6-0.1,0.9-0.3c0.4-0.3,0.6-0.7,0.7-1.3h0.7
			c-0.1,0.7-0.4,1.3-0.8,1.7c-0.4,0.4-1,0.6-1.7,0.6c-0.7,0-1.3-0.2-1.8-0.7c-0.5-0.5-0.8-1.3-0.8-2.4c0-0.9,0.2-1.6,0.7-2.2
			c0.5-0.5,1.1-0.8,2-0.8c0.7,0,1.2,0.2,1.7,0.6C13.9,38.9,14.1,39.3,14.2,39.8z"/>
		<path fill="#FFFFFF" d="M19.8,43.1v0.7h-4.2v-5.7h4.2v0.7h-3.4v1.8h3.1v0.7h-3.1v1.9H19.8z"/>
		<path fill="#FFFFFF" d="M25,38.1h0.7v5.7h-0.9l-2.9-4.6l0,4.6h-0.7v-5.7l0.9,0l2.8,4.6L25,38.1z"/>
		<path fill="#FFFFFF" d="M26.8,38.8v-0.7h4.6v0.7h-1.9v5h-0.8v-5H26.8z"/>
		<path fill="#FFFFFF" d="M33.3,41.4v2.5h-0.8v-5.7h2.6c0.5,0,1,0.1,1.3,0.3c0.4,0.3,0.6,0.7,0.6,1.2c0,0.4-0.1,0.7-0.3,0.9
			c-0.1,0.2-0.3,0.3-0.5,0.4c0.2,0.1,0.4,0.2,0.5,0.3c0.1,0.2,0.2,0.4,0.2,0.8l0,1c0,0.2,0,0.3,0.1,0.4c0,0.1,0.1,0.1,0.2,0.2v0.1
			h-0.9c0-0.1-0.1-0.4-0.1-0.7c0-0.3,0-0.6,0-0.7c0-0.4-0.1-0.7-0.3-0.8c-0.2-0.1-0.4-0.2-0.7-0.2H33.3z M33.3,38.8v1.9H35
			c0.4,0,0.6-0.1,0.8-0.2c0.2-0.2,0.4-0.4,0.4-0.8c0-0.4-0.1-0.6-0.4-0.8c-0.2-0.1-0.4-0.2-0.7-0.2H33.3z"/>
		<path fill="#FFFFFF" d="M41.7,42.2h-2.3l-0.6,1.7l-0.8,0l2.1-5.7H41l2.1,5.7l-0.8,0L41.7,42.2z M39.6,41.5h1.8L40.5,39L39.6,41.5z
			"/>
		<path fill="#FFFFFF" d="M44.9,38.1v5h2.9v0.7h-3.7v-5.7H44.9z"/>
		<path fill="#FFFFFF" d="M54.9,40.5v-2.4h0.8v5.7h-0.8v-2.7h-3v2.7h-0.8v-5.7h0.8v2.4H54.9z"/>
		<path fill="#FFFFFF" d="M62.6,41c0,0.8-0.2,1.4-0.6,2c-0.5,0.7-1.2,1.1-2.2,1.1c-1,0-1.7-0.3-2.2-1c-0.4-0.6-0.6-1.2-0.6-2
			c0-0.8,0.2-1.4,0.6-2c0.5-0.7,1.2-1.1,2.2-1.1c1,0,1.7,0.3,2.2,1C62.4,39.5,62.6,40.2,62.6,41z M61.8,41c0-0.7-0.2-1.2-0.5-1.7
			c-0.4-0.4-0.9-0.7-1.5-0.7c-0.6,0-1.1,0.2-1.4,0.7c-0.4,0.4-0.5,1-0.5,1.7c0,0.7,0.2,1.2,0.5,1.7c0.4,0.4,0.8,0.6,1.5,0.6
			c0.6,0,1.1-0.2,1.5-0.6C61.6,42.2,61.8,41.6,61.8,41z"/>
		<path fill="#FFFFFF" d="M62.8,38.8v-0.7h4.6v0.7h-1.9v5h-0.8v-5H62.8z"/>
		<path fill="#FFFFFF" d="M72.7,43.1v0.7h-4.2v-5.7h4.2v0.7h-3.4v1.8h3.1v0.7h-3.1v1.9H72.7z"/>
		<path fill="#FFFFFF" d="M74.9,38.1v5h2.9v0.7h-3.7v-5.7H74.9z"/>
		<path fill="#FFFFFF" d="M84.6,42.6l1,1.2l-0.9,0l-0.5-0.6c-0.2,0.3-0.4,0.4-0.7,0.6c-0.3,0.1-0.6,0.2-1,0.2
			c-0.6,0-1.1-0.2-1.4-0.6c-0.2-0.3-0.3-0.6-0.3-0.9c0-0.4,0.1-0.7,0.3-1c0.2-0.2,0.5-0.5,1-0.8c-0.2-0.3-0.4-0.5-0.5-0.6
			c-0.1-0.2-0.2-0.4-0.2-0.6c0-0.4,0.1-0.6,0.3-0.9c0.3-0.3,0.6-0.4,1-0.4c0.4,0,0.8,0.1,1,0.4c0.2,0.2,0.3,0.5,0.3,0.8
			c0,0.4-0.1,0.7-0.4,0.9c-0.1,0.2-0.4,0.3-0.7,0.6l1,1.2c0.1-0.2,0.1-0.3,0.1-0.4c0-0.1,0.1-0.3,0.1-0.5h0.7c0,0.2,0,0.4-0.1,0.7
			C84.9,42,84.8,42.3,84.6,42.6z M83.8,42.7l-1.3-1.6c-0.4,0.2-0.6,0.4-0.7,0.5c-0.2,0.2-0.3,0.4-0.3,0.7c0,0.3,0.1,0.6,0.4,0.7
			c0.2,0.1,0.4,0.2,0.6,0.2C83.1,43.3,83.5,43.1,83.8,42.7z M82.8,40.3c0.2-0.1,0.4-0.3,0.5-0.4c0.2-0.2,0.2-0.4,0.2-0.6
			c0-0.2-0.1-0.4-0.2-0.5c-0.1-0.1-0.2-0.1-0.4-0.1c-0.3,0-0.4,0.1-0.6,0.2c-0.1,0.1-0.1,0.2-0.1,0.4c0,0.2,0.1,0.3,0.2,0.5
			C82.5,40,82.6,40.2,82.8,40.3z"/>
		<path fill="#FFFFFF" d="M93.3,39.8h-0.7c0-0.4-0.2-0.7-0.5-0.9c-0.3-0.2-0.6-0.2-0.9-0.2c-0.3,0-0.6,0.1-0.8,0.2
			c-0.3,0.2-0.5,0.4-0.5,0.8c0,0.2,0.1,0.4,0.2,0.5c0.1,0.1,0.3,0.2,0.5,0.2l1.6,0.4c0.4,0.1,0.7,0.3,0.9,0.5c0.2,0.3,0.4,0.6,0.4,1
			c0,0.6-0.2,1.1-0.7,1.4c-0.4,0.2-0.9,0.4-1.5,0.4c-0.5,0-0.9-0.1-1.2-0.2c-0.2-0.1-0.4-0.2-0.6-0.4c-0.2-0.2-0.4-0.4-0.4-0.7
			c-0.1-0.2-0.1-0.5-0.1-0.8h0.7c0,0.5,0.2,0.8,0.5,1.1c0.3,0.2,0.6,0.3,1.1,0.3c0.5,0,0.9-0.1,1.2-0.3c0.2-0.2,0.3-0.4,0.3-0.7
			c0-0.3-0.1-0.5-0.2-0.6c-0.2-0.1-0.5-0.3-1-0.4l-1.2-0.3c-0.3-0.1-0.6-0.2-0.7-0.3c-0.3-0.2-0.5-0.6-0.5-1c0-0.5,0.2-0.9,0.5-1.2
			c0.4-0.4,0.9-0.5,1.5-0.5c0.9,0,1.5,0.2,1.9,0.7C93.1,38.9,93.3,39.3,93.3,39.8z"/>
		<path fill="#FFFFFF" d="M95.6,41.4v2.4h-0.8v-5.7h2.6c0.5,0,0.9,0.1,1.2,0.4c0.3,0.3,0.5,0.7,0.5,1.2c0,0.5-0.1,0.8-0.4,1.1
			c-0.3,0.4-0.7,0.5-1.3,0.5H95.6z M95.6,38.8v2h1.5c0.4,0,0.7-0.1,0.8-0.2c0.2-0.2,0.3-0.4,0.3-0.8c0-0.3-0.1-0.6-0.3-0.7
			c-0.2-0.1-0.5-0.2-0.8-0.2H95.6z"/>
		<path fill="#FFFFFF" d="M103.6,42.2h-2.3l-0.6,1.7l-0.8,0l2.1-5.7h0.9l2.1,5.7l-0.8,0L103.6,42.2z M101.5,41.5h1.8l-0.8-2.5
			L101.5,41.5z"/>
	</g>
	<g>
		<path fill="#FFFFFF" d="M5.4,37.4l-0.3-1c0.4-0.1,43.7-9.2,104.1-0.8l-0.2,1.1C48.8,28.3,5.8,37.3,5.4,37.4z"/>
	</g>
	<path fill="#FFFFFF" d="M31.3,22.1c-0.2-1.1-0.2-1.5-0.4-4.4c-0.1-0.9-0.2-1.6-0.2-2.2c0-3.3-0.6-8,0.6-11.7
		c-2.1,2.4-3.9,6.2-5.6,11.3c0.3,0.4,0.7,0.9,1.2,1.6l0.5,0.9l0.5,0.9l0.2,0.5l0.2,0.6l0.1,0.2l0,0l-0.4,0.2
		c-0.1-0.4-0.3-0.9-0.5-1.3c-0.6-1.3-1.3-2.4-2-3.1l-0.8,2.3c-0.9,2.6-1.7,4.5-2.2,5.7c1,0.3,2.1,0.4,3,0.4c0.5,0,1,0,1.5-0.1
		c0.2,0,0.6-0.1,1.1-0.2C29.3,23.2,30.4,22.7,31.3,22.1L31.3,22.1z M33.2,29.9l-1.1-3.8c-0.3-1.5-0.6-2.4-0.7-3.1
		c-0.9,0.5-2,0.9-3.2,1.1c-1.9,0.4-3.9,0.4-6-0.1c-1.8,3.7-4.6,6.2-8.3,7.6c-2.2,0.8-4.2,1-6,0.7c-2.2-0.4-3.7-1.6-4.7-3.6
		c-0.9-1.8-0.8-3.7,0.3-5.5c1-1.7,2.4-2.9,4.4-3.6c1.5-0.5,2.8-0.7,4.2-0.4c1.6,0.3,2.7,1.1,3.3,2.4c0.7,1.5,0.7,3-0.1,4.3
		c-0.7,1.2-1.9,2.1-3.5,2.7c-0.9,0.3-1.4,0.4-1.6,0.2l0-0.1l0.2-0.1l0.1,0l0.9-0.3c1.6-0.5,2.7-1.4,3.4-2.6c0.7-1.1,0.7-2.3,0.1-3.5
		c-0.5-1.1-1.4-1.7-2.6-2c-1.1-0.2-2.2-0.1-3.3,0.4c-1.8,0.7-3.3,1.8-4.2,3.4c-1.1,1.7-1.2,3.5-0.4,5.2c0.8,1.6,2.2,2.6,4.2,2.8
		c1.6,0.2,3.3,0,5.2-0.7l0.8-0.3l0.5-0.2l0.6-0.3c0.1-0.1,0.3-0.2,0.6-0.4c0.8-0.5,1.6-1.1,2.2-1.7c1.3-1.2,2.4-2.7,3.3-4.5
		c-3.3-1-5.5-2.6-6.5-4.9c-0.6-1.2-0.7-2.4-0.2-3.5c0.4-1.1,1.3-1.9,2.6-2.4c2.4-0.9,5-0.3,7.7,1.7c1.1-3,2.1-5.5,3.1-7.4
		c0.9-1.7,2-3.3,3.3-4.7l0.4-0.4l0,0.7L32,4.2l-0.1,2.5c0,1.4,0,3.1,0.2,5.2c0.2,2.6,0.6,5.4,1.2,8.6c1-1.1,1.8-2.5,2.6-4.2l0.2,0.1
		c-0.2,0.8-0.9,3.1-2.6,4.9c0.1,0.7,0.3,1.5,0.5,2.2l0.1,0.5l1.9,5.8H33.2L33.2,29.9z M22,23.4c0.6-1.4,1.5-3.6,2.6-6.7l0.6-1.6
		c-2.2-1.8-4.4-2.3-6.4-1.6c-1.2,0.4-2,1.3-2.3,2.4c-0.4,1.1-0.2,2.3,0.3,3.4C17.6,21.4,19.4,22.7,22,23.4L22,23.4z M95,13.9h3.8
		l8.5,10.4v-8c0-0.8-0.1-1.4-0.3-1.6c-0.3-0.3-0.7-0.4-1.2-0.4h-0.5v-0.4h4.8v0.4h-0.5c-0.6,0-1,0.2-1.2,0.5
		c-0.1,0.2-0.2,0.7-0.2,1.5V28h-0.4l-9.1-11.1v8.5c0,0.8,0.1,1.4,0.3,1.6c0.3,0.3,0.7,0.4,1.2,0.4h0.5v0.4h-4.8v-0.4h0.5
		c0.6,0,1-0.2,1.3-0.5c0.1-0.2,0.2-0.7,0.2-1.5v-9.6c-0.3-0.4-0.6-0.7-0.8-0.8c-0.3-0.2-0.6-0.4-1-0.5c-0.2-0.1-0.5-0.1-0.9-0.1
		V13.9L95,13.9z M87.6,14.4c-1.2,0-2.2,0.5-3,1.4c-0.9,1.1-1.4,2.8-1.4,5c0,2.3,0.5,4,1.4,5.2c0.7,0.9,1.7,1.4,2.9,1.4
		c1.6,0,2.8-0.7,3.6-2.1c0.6-1.1,0.9-2.5,0.9-4.3c0-1.9-0.3-3.3-0.9-4.5C90.5,15.1,89.3,14.4,87.6,14.4L87.6,14.4z M87.8,13.6
		c1.9,0,3.5,0.7,4.8,2.2c1.2,1.4,1.9,3.1,1.9,5c0,2-0.6,3.7-1.9,5.1c-1.3,1.5-2.9,2.2-4.9,2.2c-2,0-3.7-0.7-4.9-2.2
		c-1.2-1.4-1.8-3.1-1.8-5.1c0-2.2,0.7-4,2.2-5.4C84.4,14.2,86,13.6,87.8,13.6L87.8,13.6z M77.9,13.6l0.4,4.4h-0.4
		c-0.4-1.1-0.8-1.9-1.4-2.5c-0.8-0.8-1.9-1.2-3.2-1.2c-1.8,0-3.1,0.7-4,2.1c-0.8,1.2-1.2,2.6-1.2,4.2c0,1.2,0.2,2.3,0.7,3.4
		c0.5,1.2,1.2,2.1,2.1,2.6c0.8,0.5,1.7,0.8,2.5,0.8c1,0,2-0.3,2.9-0.8v-4c0-0.5,0-0.9-0.1-1.1c-0.1-0.4-0.3-0.6-0.6-0.8
		c-0.2-0.1-0.6-0.2-1.2-0.2v-0.4h5.4v0.4h-0.3c-0.5,0-0.9,0.2-1.1,0.5c-0.1,0.2-0.2,0.7-0.2,1.5v4.2c-1.5,0.8-3.1,1.2-4.9,1.2
		c-2.7,0-4.7-0.9-6.1-2.6c-1-1.3-1.6-2.8-1.6-4.4c0-1.2,0.3-2.4,0.9-3.5c1.4-2.6,3.5-3.9,6.4-3.9c0.9,0,1.9,0.2,3.1,0.7
		c0.4,0.1,0.6,0.2,0.8,0.2c0.3,0,0.4-0.3,0.5-0.9H77.9L77.9,13.6z M59.3,22.4l-2.3-5.6l-2.4,5.6H59.3L59.3,22.4z M59.6,23.1h-5.4
		l-0.9,2.2c-0.2,0.5-0.3,0.9-0.3,1.2c0,0.4,0.3,0.6,0.8,0.8c0.2,0.1,0.5,0.1,0.8,0.1v0.4h-4.4v-0.4c0.6-0.1,0.9-0.2,1.1-0.4
		c0.3-0.3,0.7-1,1.2-2l4.9-11.4h0.4l4.8,11.5c0.4,0.9,0.7,1.5,1.1,1.8c0.4,0.3,0.8,0.5,1.3,0.5v0.4h-5.5v-0.4c0.5,0,0.9-0.1,1.1-0.3
		c0.2-0.2,0.3-0.3,0.3-0.6c0-0.3-0.1-0.8-0.4-1.4L59.6,23.1L59.6,23.1z M49.2,23.9l0.3,0.1l-1.2,3.8H37.7v-0.4h0.5
		c0.6,0,1-0.2,1.3-0.6c0.1-0.2,0.2-0.7,0.2-1.5v-8.9c0-0.9-0.1-1.4-0.3-1.6c-0.3-0.3-0.7-0.4-1.2-0.4h-0.5v-0.4h6.3v0.4
		c-1.2,0-1.9,0.3-2.2,0.7c-0.1,0.2-0.2,0.7-0.2,1.6v8.7c0,0.6,0.1,1,0.2,1.2c0.1,0.2,0.4,0.4,0.9,0.4c0,0,0.4,0,1,0h1
		c0.9,0,1.5,0,1.8-0.1c0.6-0.1,1.1-0.4,1.6-0.9C48.5,25.5,48.8,24.8,49.2,23.9L49.2,23.9z"/>
</g>
</svg>
